<svg id="Layer_1" data-name="Layer 1" xmlns="http://www.w3.org/2000/svg" viewBox="0 0 575.57 575.57"><defs><style>.cls-1{fill:#232c53;}.cls-2{fill:#fff;}.cls-3{fill:#161931;}.cls-4{fill:#ffb314;}.cls-5{fill:#ff971e;}</style></defs><polygon class="cls-1" points="227.65 359.11 228.14 359.19 227.67 359.11 227.65 359.11"/><path class="cls-2" d="M287.78,0c-1.29,0-2.58,0-3.86,0C166.94,2.09,72.75,97.56,72.75,215v145.5c0,117.48,94.19,213,211.17,215,1.28,0,2.57,0,3.86,0a215,215,0,0,0,215-215V215C502.82,96.27,406.54,0,287.78,0Zm200,360.53a199.85,199.85,0,0,1-200,200c-1.29,0-2.58,0-3.86,0a199.84,199.84,0,0,1-196.17-200V215A199.82,199.82,0,0,1,283.92,15c1.28,0,2.57,0,3.86,0a199.85,199.85,0,0,1,200,200Z"/><path class="cls-1" d="M283.92,339.6a22.28,22.28,0,0,1-4.06-42.77l.85-.31a22.87,22.87,0,0,1,3.21-.82Z"/><path class="cls-1" d="M283.92,354.73v27.08a43.43,43.43,0,0,0-20-11.59h0a37.29,37.29,0,0,0-27.37-28.94,26.05,26.05,0,0,1,4.36-7.59,26.59,26.59,0,0,1,10.56-7.46A37.26,37.26,0,0,0,283.92,354.73Z"/><path class="cls-1" d="M283.92,235.23v27.08a43.43,43.43,0,0,0-20-11.59h0a37.29,37.29,0,0,0-27.37-28.94,26.05,26.05,0,0,1,4.36-7.59,26.59,26.59,0,0,1,10.56-7.46A37.26,37.26,0,0,0,283.92,235.23Z"/><path class="cls-1" d="M283.92,220.1a22.28,22.28,0,0,1,0-43.89Z"/><path class="cls-3" d="M283.92,220.1a21.48,21.48,0,0,0,3.86.34,22.29,22.29,0,1,0,0-44.57,21.4,21.4,0,0,0-3.86.34Z"/><path class="cls-3" d="M338.93,221.56a37.28,37.28,0,0,0-20.82,14.14,36.87,36.87,0,0,0-6.48,14.79h0c-9.05,2.56-16.34,7.11-21.77,13.59-.77.92-1.49,1.86-2.15,2.82-.62-.88-1.28-1.75-2-2.61-.57-.69-1.17-1.35-1.79-2V235.23a35.25,35.25,0,0,0,3.86.21,37.32,37.32,0,0,0,36.31-28.73,26.82,26.82,0,0,1,10.47,7.38A26,26,0,0,1,338.93,221.56Z"/><path class="cls-3" d="M338.93,341.06A37.37,37.37,0,0,0,311.63,370h0c-9.05,2.56-16.34,7.11-21.77,13.59-.77.92-1.49,1.86-2.15,2.82-.62-.88-1.28-1.75-2-2.61-.57-.69-1.17-1.35-1.79-2V354.73a35.25,35.25,0,0,0,3.86.21,37.32,37.32,0,0,0,36.31-28.73,26.82,26.82,0,0,1,10.47,7.38A26,26,0,0,1,338.93,341.06Z"/><path class="cls-3" d="M283.92,339.6a21.48,21.48,0,0,0,3.86.34,22.28,22.28,0,0,0,7.93-43.11q-.4-.16-.84-.3a22.42,22.42,0,0,0-10.95-.83Z"/><path class="cls-1" d="M283.92,414.47H279.8a55.61,55.61,0,0,1,.39-7.43,28.61,28.61,0,0,0-6.06-13.7A26.46,26.46,0,0,0,263.65,386a37.29,37.29,0,0,1-32.31,28.5,36.29,36.29,0,0,1-8,0,37.28,37.28,0,0,1-32.3-28.5,26.59,26.59,0,0,0-10.56,7.46c-5.89,7-6.64,16.21-6.56,21H159c-.1-7.24,1.21-20.11,10.05-30.67,5.43-6.48,12.72-11,21.77-13.58h0a37.32,37.32,0,0,1,20.47-26.44l0,0h0a37.22,37.22,0,0,1,7.41-2.62,25.93,25.93,0,0,0-4.39-7.54,26.66,26.66,0,0,0-10.48-7.38,36.54,36.54,0,0,1-1.3,4.32,32.32,32.32,0,0,1-1.57,3.63,37.28,37.28,0,0,1-69.72-7.94,26.52,26.52,0,0,0-10.56,7.46c-6.06,7.24-6.68,16.74-6.56,21.44h-15c-.14-7.16,1.05-20.32,10.05-31.07,5.42-6.48,12.71-11,21.76-13.58A37.31,37.31,0,0,1,160.59,281,42.18,42.18,0,0,1,169,264.3c5.43-6.48,12.71-11,21.76-13.58h0a37.32,37.32,0,0,1,30.28-29.57,42.26,42.26,0,0,1,8.38-16.6c5.42-6.48,12.71-11,21.76-13.58a37.3,37.3,0,0,1,32.73-29.9V15A199.84,199.84,0,0,0,87.75,215v145.5a199.82,199.82,0,0,0,196.17,200Z"/><path class="cls-4" d="M283.92,176.21V161.07A37.3,37.3,0,0,0,251.19,191c-9.05,2.56-16.34,7.1-21.76,13.58a42.26,42.26,0,0,0-8.38,16.6,37.32,37.32,0,0,0-30.28,29.57h0c-9,2.56-16.33,7.1-21.76,13.58A42.18,42.18,0,0,0,160.59,281a37.31,37.31,0,0,0-29.65,29.45c-9,2.56-16.34,7.1-21.76,13.58C100.18,334.8,99,348,99.13,355.12h15c-.12-4.7.5-14.2,6.56-21.44a26.52,26.52,0,0,1,10.56-7.46A37.28,37.28,0,0,0,201,334.16a32.32,32.32,0,0,0,1.57-3.63,36.54,36.54,0,0,0,1.3-4.32,26.66,26.66,0,0,1,10.48,7.38,25.93,25.93,0,0,1,4.39,7.54,37.22,37.22,0,0,0-7.41,2.62h0l0,0a37.32,37.32,0,0,0-20.47,26.44h0c-9.05,2.56-16.34,7.1-21.77,13.58-8.84,10.56-10.15,23.43-10.05,30.67h15c-.08-4.83.67-14,6.56-21A26.59,26.59,0,0,1,191.06,386a37.28,37.28,0,0,0,32.3,28.5,36.29,36.29,0,0,0,8,0A37.29,37.29,0,0,0,263.65,386a26.46,26.46,0,0,1,10.48,7.37,28.61,28.61,0,0,1,6.06,13.7,55.61,55.61,0,0,0-.39,7.43h4.12V381.81a43.43,43.43,0,0,0-20-11.59h0a37.29,37.29,0,0,0-27.37-28.94,26.05,26.05,0,0,1,4.36-7.59,26.59,26.59,0,0,1,10.56-7.46,37.26,37.26,0,0,0,32.43,28.51V339.6a22.28,22.28,0,0,1-4.06-42.77l.85-.31a22.87,22.87,0,0,1,3.21-.82V262.31a43.43,43.43,0,0,0-20-11.59h0a37.29,37.29,0,0,0-27.37-28.94,26.05,26.05,0,0,1,4.36-7.59,26.59,26.59,0,0,1,10.56-7.46,37.26,37.26,0,0,0,32.43,28.51V220.1a22.28,22.28,0,0,1,0-43.89Zm-94.78,146.9a22.27,22.27,0,1,1,.68-5.46A22.32,22.32,0,0,1,189.14,323.11Zm58.31,44.66a22.29,22.29,0,1,1-28-11.19l.29-.11c.39-.15.79-.28,1.19-.4a21.51,21.51,0,0,1,2.8-.65,22.32,22.32,0,0,1,10.72.85c.5.16,1,.35,1.46.54A22.42,22.42,0,0,1,247.45,367.77Zm16.2-101.3a26.46,26.46,0,0,1,10.48,7.37,26.05,26.05,0,0,1,4.44,7.67,37.4,37.4,0,0,0-27.38,29c-9.05,2.56-16.34,7.1-21.76,13.58-.63.75-1.22,1.51-1.77,2.29-.56-.78-1.15-1.54-1.78-2.29-5.42-6.48-12.71-11-21.75-13.58a37.33,37.33,0,0,0-27.94-29.09,26,26,0,0,1,4.31-7.45,26.59,26.59,0,0,1,10.56-7.46,37.29,37.29,0,0,0,72.59,0Zm-16.2-18.2a22.29,22.29,0,1,1-41.71,15.09h0a22.27,22.27,0,0,1,19.8-27.65c.6-.06,1.2-.08,1.81-.08s1.29,0,1.92.08a21.92,21.92,0,0,1,5.15,1.07A22.42,22.42,0,0,1,247.45,248.27Z"/><path class="cls-1" d="M249.64,377.4a22.29,22.29,0,1,1-30.22-20.82l.29-.11c.39-.15.79-.28,1.19-.4a21.51,21.51,0,0,1,2.8-.65,22.32,22.32,0,0,1,10.72.85c.5.16,1,.35,1.46.54a22.42,22.42,0,0,1,11.57,11A22.17,22.17,0,0,1,249.64,377.4Z"/><path class="cls-1" d="M189.82,317.65a22.29,22.29,0,1,1-2.19-9.63A22.37,22.37,0,0,1,189.82,317.65Z"/><path class="cls-1" d="M278.57,281.51a37.4,37.4,0,0,0-27.38,29c-9.05,2.56-16.34,7.1-21.76,13.58-.63.75-1.22,1.51-1.77,2.29-.56-.78-1.15-1.54-1.78-2.29-5.42-6.48-12.71-11-21.75-13.58a37.33,37.33,0,0,0-27.94-29.09,26,26,0,0,1,4.31-7.45,26.59,26.59,0,0,1,10.56-7.46,37.29,37.29,0,0,0,72.59,0,26.46,26.46,0,0,1,10.48,7.37A26.05,26.05,0,0,1,278.57,281.51Z"/><path class="cls-1" d="M249.64,257.9a22.29,22.29,0,0,1-43.9,5.46h0a22.27,22.27,0,0,1,19.8-27.65c.6-.06,1.2-.08,1.81-.08s1.29,0,1.92.08a21.92,21.92,0,0,1,5.15,1.07,22.42,22.42,0,0,1,13,11.5A22.17,22.17,0,0,1,249.64,257.9Z"/><path class="cls-5" d="M466.39,323.84c-5.43-6.48-12.72-11-21.77-13.6A37.29,37.29,0,0,0,415,280.8a42.27,42.27,0,0,0-8.41-16.71c-5.42-6.48-12.71-11-21.76-13.59a37.33,37.33,0,0,0-30.35-29.58,42.21,42.21,0,0,0-8.32-16.37c-5.42-6.48-12.71-11-21.75-13.58a37.3,37.3,0,0,0-36.6-30.1,37.93,37.93,0,0,0-3.86.2v15.14a21.4,21.4,0,0,1,3.86-.34,22.29,22.29,0,1,1,0,44.57,21.48,21.48,0,0,1-3.86-.34v15.13a35.25,35.25,0,0,0,3.86.21,37.32,37.32,0,0,0,36.31-28.73,26.82,26.82,0,0,1,10.47,7.38,26,26,0,0,1,4.37,7.47,37.28,37.28,0,0,0-20.82,14.14,36.87,36.87,0,0,0-6.48,14.79h0c-9.05,2.56-16.34,7.11-21.77,13.59-.77.92-1.49,1.86-2.15,2.82-.62-.88-1.28-1.75-2-2.61-.57-.69-1.17-1.35-1.79-2V295.7a22.42,22.42,0,0,1,10.95.83q.44.14.84.3a22.28,22.28,0,0,1-7.93,43.11,21.48,21.48,0,0,1-3.86-.34v15.13a35.25,35.25,0,0,0,3.86.21,37.32,37.32,0,0,0,36.31-28.73,26.82,26.82,0,0,1,10.47,7.38,26,26,0,0,1,4.37,7.47A37.37,37.37,0,0,0,311.63,370h0c-9.05,2.56-16.34,7.11-21.77,13.59-.77.92-1.49,1.86-2.15,2.82-.62-.88-1.28-1.75-2-2.61-.57-.69-1.17-1.35-1.79-2v32.66h11.84a53.4,53.4,0,0,0-.42-7.47,28.86,28.86,0,0,1,6-13.78,26.47,26.47,0,0,1,10.55-7.47,37.3,37.3,0,0,0,72.6,0A26.56,26.56,0,0,1,395,393.13c6.05,7.16,6.73,16.55,6.63,21.34h15c.12-7.2-1.13-20.22-10.06-30.88-5.42-6.48-12.71-11-21.76-13.59a37.35,37.35,0,0,0-27.93-29.09,26.11,26.11,0,0,1,4.31-7.44A26.57,26.57,0,0,1,371.73,326a37.31,37.31,0,0,0,72.61,0,26.52,26.52,0,0,1,10.47,7.38c6.23,7.36,6.77,17.08,6.62,21.74h15C476.61,348,475.49,334.7,466.39,323.84ZM328.12,248.05a22.42,22.42,0,0,1,13-11.5,21.89,21.89,0,0,1,7.06-1.15,22.33,22.33,0,0,1,7.94,1.47,22.28,22.28,0,1,1-28,11.18Zm40.19,119.5a22.28,22.28,0,1,1-28.62-11c.48-.2,1-.38,1.46-.54a22.47,22.47,0,0,1,7.06-1.15,21.79,21.79,0,0,1,3.14.22,21.44,21.44,0,0,1,3.31.73,15.44,15.44,0,0,1,1.49.52A22.39,22.39,0,0,1,368.31,367.55ZM378,295.37a37,37,0,0,0-6.53,14.87c-9.05,2.58-16.34,7.12-21.77,13.6-.66.79-1.28,1.59-1.85,2.4-.53-.74-1.1-1.47-1.7-2.19-5.42-6.48-12.71-11-21.75-13.58a37.32,37.32,0,0,0-27.46-29,25.31,25.31,0,0,1,15-15.25,37.3,37.3,0,0,0,72.6,0A26.56,26.56,0,0,1,395,273.63a25.93,25.93,0,0,1,4.39,7.54A37.29,37.29,0,0,0,378,295.37Zm51.66,27.53a22.28,22.28,0,1,1-28.06-26.8,21.44,21.44,0,0,1,3.31-.73,21.79,21.79,0,0,1,3.14-.22,21.14,21.14,0,0,1,3.1.22,21.47,21.47,0,0,1,5.43,1.48,22.28,22.28,0,0,1,13.08,26Z"/><path class="cls-3" d="M399.38,281.17a37.28,37.28,0,0,0-27.93,29.07c-9.05,2.58-16.34,7.12-21.77,13.6-.66.79-1.28,1.59-1.85,2.4-.53-.74-1.1-1.47-1.7-2.19-5.42-6.48-12.71-11-21.75-13.58a37.32,37.32,0,0,0-27.46-29,25.31,25.31,0,0,1,15-15.25,37.3,37.3,0,0,0,72.6,0A26.56,26.56,0,0,1,395,273.63,25.93,25.93,0,0,1,399.38,281.17Z"/><path class="cls-3" d="M370.5,257.69a22.29,22.29,0,1,1-29.35-21.14,21.89,21.89,0,0,1,7.06-1.15,22.33,22.33,0,0,1,7.94,1.47,22.26,22.26,0,0,1,14.35,20.82Z"/><path class="cls-3" d="M370.5,377.19a22.28,22.28,0,1,1-30.81-20.6c.48-.2,1-.38,1.46-.54a22.47,22.47,0,0,1,7.06-1.15,21.79,21.79,0,0,1,3.14.22,21.44,21.44,0,0,1,3.31.73,15.44,15.44,0,0,1,1.49.52,22.26,22.26,0,0,1,14.35,20.82Z"/><path class="cls-3" d="M430.32,317.44a22.28,22.28,0,1,1-28.74-21.34,21.44,21.44,0,0,1,3.31-.73,21.79,21.79,0,0,1,3.14-.22,21.14,21.14,0,0,1,3.1.22,21.47,21.47,0,0,1,5.43,1.48,22.27,22.27,0,0,1,13.76,20.59Z"/><path class="cls-3" d="M283.92,560.53c1.28,0,2.57,0,3.86,0a199.85,199.85,0,0,0,200-200V215a199.85,199.85,0,0,0-200-200c-1.29,0-2.58,0-3.86,0v146a37.93,37.93,0,0,1,3.86-.2,37.3,37.3,0,0,1,36.6,30.1c9,2.56,16.33,7.1,21.75,13.58a42.21,42.21,0,0,1,8.32,16.37A37.33,37.33,0,0,1,384.8,250.5c9.05,2.57,16.34,7.11,21.76,13.59A42.27,42.27,0,0,1,415,280.8a37.29,37.29,0,0,1,29.65,29.44c9.05,2.58,16.34,7.12,21.77,13.6,9.1,10.86,10.22,24.17,10,31.28h-15c.15-4.66-.39-14.38-6.62-21.74A26.52,26.52,0,0,0,444.34,326a37.31,37.31,0,0,1-72.61,0,26.57,26.57,0,0,0-10.55,7.47,26.11,26.11,0,0,0-4.31,7.44A37.35,37.35,0,0,1,384.8,370c9.05,2.57,16.34,7.11,21.76,13.59,8.93,10.66,10.18,23.68,10.06,30.88h-15c.1-4.79-.58-14.18-6.63-21.34a26.56,26.56,0,0,0-10.48-7.38,37.3,37.3,0,0,1-72.6,0,26.47,26.47,0,0,0-10.55,7.47,28.86,28.86,0,0,0-6,13.78,53.4,53.4,0,0,1,.42,7.47H283.92Z"/></svg>